# Blender v3.0.1 OBJ File: ''
# www.blender.org
mtllib body.mtl
o Body_Cube
v 0.277726 1.622660 -1.000000
v 0.277726 1.769213 -0.853448
v 0.424279 1.622660 -0.853448
v 0.277726 1.695840 -0.980421
v 0.350906 1.622660 -0.980421
v 0.347809 1.692743 -0.961403
v 0.350906 1.749634 -0.853447
v 0.277726 1.749634 -0.926628
v 0.347809 1.730615 -0.923531
v 0.404700 1.622660 -0.926628
v 0.404700 1.695840 -0.853447
v 0.385681 1.692743 -0.923531
v 0.277726 -1.769212 -0.853448
v 0.277726 -1.622660 -1.000000
v 0.424279 -1.622660 -0.853448
v 0.277726 -1.749634 -0.926628
v 0.350906 -1.749634 -0.853447
v 0.347809 -1.730615 -0.923531
v 0.350906 -1.622660 -0.980421
v 0.277726 -1.695840 -0.980421
v 0.347809 -1.692743 -0.961403
v 0.404700 -1.695840 -0.853447
v 0.404700 -1.622660 -0.926628
v 0.385681 -1.692743 -0.923531
v 0.424279 1.622660 0.853447
v 0.277726 1.769213 0.853447
v 0.277726 1.622660 1.000000
v 0.404700 1.695840 0.853447
v 0.404700 1.622660 0.926627
v 0.385681 1.692743 0.923530
v 0.277726 1.749634 0.926627
v 0.350906 1.749634 0.853447
v 0.347809 1.730615 0.923530
v 0.350906 1.622660 0.980421
v 0.277726 1.695840 0.980421
v 0.347809 1.692743 0.961403
v 0.424279 -1.622660 0.853447
v 0.277726 -1.622660 1.000000
v 0.277726 -1.769212 0.853447
v 0.404700 -1.622660 0.926627
v 0.404700 -1.695840 0.853447
v 0.385681 -1.692743 0.923530
v 0.277726 -1.695840 0.980421
v 0.350906 -1.622660 0.980421
v 0.347809 -1.692743 0.961403
v 0.350906 -1.749634 0.853447
v 0.277726 -1.749634 0.926627
v 0.347809 -1.730615 0.923530
v -0.277726 1.622660 -1.000000
v -0.424278 1.622660 -0.853448
v -0.277726 1.769213 -0.853448
v -0.350906 1.622660 -0.980421
v -0.277726 1.695840 -0.980421
v -0.347809 1.692743 -0.961403
v -0.404700 1.695840 -0.853447
v -0.404700 1.622660 -0.926628
v -0.385681 1.692743 -0.923531
v -0.277726 1.749634 -0.926628
v -0.350906 1.749634 -0.853447
v -0.347809 1.730615 -0.923531
v -0.424278 -1.622660 -0.853448
v -0.277726 -1.622660 -1.000000
v -0.277726 -1.769212 -0.853448
v -0.404700 -1.622660 -0.926628
v -0.404700 -1.695840 -0.853447
v -0.385681 -1.692743 -0.923531
v -0.277726 -1.695840 -0.980421
v -0.350906 -1.622660 -0.980421
v -0.347809 -1.692743 -0.961403
v -0.350906 -1.749634 -0.853447
v -0.277726 -1.749634 -0.926628
v -0.347809 -1.730615 -0.923531
v -0.424278 1.622660 0.853447
v -0.277726 1.622660 1.000000
v -0.277726 1.769213 0.853447
v -0.404700 1.622660 0.926627
v -0.404700 1.695840 0.853447
v -0.385681 1.692743 0.923530
v -0.277726 1.695840 0.980421
v -0.350906 1.622660 0.980421
v -0.347809 1.692743 0.961403
v -0.350906 1.749634 0.853447
v -0.277726 1.749634 0.926627
v -0.347809 1.730615 0.923530
v -0.277726 -1.769212 0.853447
v -0.277726 -1.622660 1.000000
v -0.424278 -1.622660 0.853447
v -0.277726 -1.749634 0.926627
v -0.350906 -1.749634 0.853447
v -0.347809 -1.730615 0.923530
v -0.350906 -1.622660 0.980421
v -0.277726 -1.695840 0.980421
v -0.347809 -1.692743 0.961403
v -0.404700 -1.695840 0.853447
v -0.404700 -1.622660 0.926627
v -0.385681 -1.692743 0.923530
vt 0.168177 0.518319
vt 0.331823 0.518319
vt 0.331823 0.731681
vt 0.168177 0.731681
vt 0.385354 0.018319
vt 0.614646 0.018319
vt 0.614646 0.231681
vt 0.385354 0.231681
vt 0.385354 0.793177
vt 0.614646 0.793177
vt 0.614646 0.956823
vt 0.385354 0.956823
vt 0.668177 0.518319
vt 0.831823 0.518319
vt 0.831823 0.731681
vt 0.668177 0.731681
vt 0.385354 0.518319
vt 0.614646 0.518319
vt 0.614646 0.731681
vt 0.385354 0.731681
vt 0.614646 0.456823
vt 0.619816 0.456823
vt 0.619597 0.477471
vt 0.614646 0.478383
vt 0.625000 0.456823
vt 0.625000 0.477471
vt 0.646617 0.518319
vt 0.647529 0.509559
vt 0.668177 0.509172
vt 0.625000 0.518319
vt 0.625000 0.509559
vt 0.614646 0.509172
vt 0.619597 0.509559
vt 0.619816 0.518319
vt 0.614646 0.500000
vt 0.619597 0.500000
vt 0.619597 0.500000
vt 0.331823 0.509172
vt 0.352471 0.509559
vt 0.353383 0.518319
vt 0.331823 0.500000
vt 0.352471 0.500000
vt 0.385354 0.456823
vt 0.385354 0.478383
vt 0.380403 0.477471
vt 0.380184 0.456823
vt 0.385354 0.500000
vt 0.380403 0.500000
vt 0.380184 0.518319
vt 0.380403 0.509559
vt 0.385354 0.509172
vt 0.375000 0.518319
vt 0.375000 0.509559
vt 0.375000 0.509559
vt 0.619816 0.731681
vt 0.619597 0.740441
vt 0.614646 0.740829
vt 0.625000 0.731681
vt 0.625000 0.740441
vt 0.668177 0.740828
vt 0.647529 0.740441
vt 0.646617 0.731681
vt 0.623617 0.793177
vt 0.625000 0.793177
vt 0.625000 0.772529
vt 0.622273 0.772529
vt 0.614646 0.771617
vt 0.619597 0.772529
vt 0.619816 0.793177
vt 0.614646 0.750000
vt 0.619597 0.750000
vt 0.619597 0.750000
vt 0.385354 0.740829
vt 0.380403 0.740441
vt 0.380184 0.731681
vt 0.385354 0.750000
vt 0.380403 0.750000
vt 0.380184 0.793177
vt 0.380403 0.772529
vt 0.385354 0.771617
vt 0.331823 0.747553
vt 0.331823 0.750000
vt 0.352471 0.750000
vt 0.352471 0.745175
vt 0.353383 0.731681
vt 0.352471 0.740441
vt 0.331823 0.740828
vt 0.375000 0.731681
vt 0.375000 0.740441
vt 0.380403 0.761371
vt 0.375000 0.772529
vt 0.614646 0.293177
vt 0.614646 0.271617
vt 0.619597 0.272529
vt 0.619816 0.293177
vt 0.614646 0.250000
vt 0.619597 0.250000
vt 0.619816 0.231681
vt 0.619597 0.240441
vt 0.614646 0.240828
vt 0.625000 0.231681
vt 0.625000 0.240441
vt 0.831823 0.509172
vt 0.852471 0.509559
vt 0.853383 0.518319
vt 0.623617 0.293177
vt 0.625000 0.293177
vt 0.625000 0.272529
vt 0.622273 0.272529
vt 0.619597 0.245175
vt 0.385354 0.240828
vt 0.380403 0.240441
vt 0.380184 0.231681
vt 0.385354 0.250000
vt 0.380403 0.250000
vt 0.385354 0.293177
vt 0.380184 0.293177
vt 0.380403 0.272529
vt 0.385354 0.271617
vt 0.168177 0.502447
vt 0.168177 0.500000
vt 0.147529 0.500000
vt 0.147529 0.504825
vt 0.146617 0.518319
vt 0.147529 0.509559
vt 0.168177 0.509172
vt 0.125000 0.518319
vt 0.125000 0.509559
vt 0.375000 0.240441
vt 0.614646 0.009172
vt 0.619597 0.009559
vt 0.619816 0.018319
vt 0.614646 0.000000
vt 0.619597 0.000000
vt 0.619816 0.956823
vt 0.619597 0.977471
vt 0.614646 0.978383
vt 0.625000 0.956823
vt 0.625000 0.977471
vt 0.853383 0.731681
vt 0.852471 0.740441
vt 0.831823 0.740828
vt 0.623617 0.018319
vt 0.625000 0.018319
vt 0.625000 0.009559
vt 0.622273 0.009559
vt 0.625000 0.009559
vt 0.168177 0.740828
vt 0.147529 0.740441
vt 0.146617 0.731681
vt 0.168177 0.750000
vt 0.147529 0.750000
vt 0.385354 0.978383
vt 0.380403 0.977471
vt 0.380184 0.956823
vt 0.385354 0.002447
vt 0.385354 0.000000
vt 0.380403 0.000000
vt 0.380403 0.004825
vt 0.380184 0.018319
vt 0.380403 0.009559
vt 0.385354 0.009172
vt 0.130768 0.731681
vt 0.125000 0.731681
vt 0.125000 0.740441
vt 0.136371 0.740441
vt 0.125000 0.740441
vt 0.125000 0.731681
vt 0.168177 0.500000
vt 0.385354 0.000000
vt 0.625000 0.793177
vt 0.331823 0.750000
vt 0.625000 0.018319
vt 0.625000 0.293177
vn -0.1296 -0.9831 -0.1296
vn 0.1296 -0.9831 -0.1296
vn 0.1296 -0.9831 0.1296
vn -0.1296 -0.9831 0.1296
vn -0.9831 -0.1296 0.1296
vn -0.9831 0.1296 0.1296
vn -0.9831 0.1296 -0.1296
vn -0.9831 -0.1296 -0.1296
vn 0.1296 -0.1296 0.9831
vn 0.1296 0.1296 0.9830
vn -0.1296 0.1296 0.9831
vn -0.1296 -0.1296 0.9831
vn 0.1296 0.9830 -0.1296
vn -0.1296 0.9830 -0.1296
vn -0.1296 0.9830 0.1296
vn 0.1296 0.9830 0.1296
vn 0.9831 -0.1296 -0.1296
vn 0.9831 0.1296 -0.1296
vn 0.9831 0.1296 0.1296
vn 0.9831 -0.1296 0.1296
vn 0.1296 0.1296 -0.9831
vn 0.1216 0.4915 -0.8623
vn 0.4473 0.4473 -0.7744
vn 0.4915 0.1216 -0.8623
vn 0.1216 0.8623 -0.4915
vn 0.4473 0.7744 -0.4473
vn 0.4915 0.8623 -0.1216
vn 0.8623 0.4915 -0.1216
vn 0.7744 0.4473 -0.4473
vn 0.8623 0.1216 -0.4915
vn 0.1216 -0.8623 -0.4915
vn 0.4473 -0.7744 -0.4473
vn 0.4915 -0.8623 -0.1216
vn 0.1216 -0.4915 -0.8623
vn 0.4473 -0.4473 -0.7744
vn 0.1296 -0.1296 -0.9831
vn 0.4915 -0.1216 -0.8623
vn 0.8623 -0.1216 -0.4915
vn 0.7744 -0.4473 -0.4473
vn 0.8623 -0.4915 -0.1216
vn 0.8623 0.4915 0.1216
vn 0.7744 0.4473 0.4473
vn 0.8623 0.1216 0.4915
vn 0.4915 0.8623 0.1216
vn 0.4473 0.7744 0.4473
vn 0.1216 0.8623 0.4915
vn 0.1216 0.4915 0.8623
vn 0.4473 0.4473 0.7744
vn 0.4915 0.1216 0.8623
vn 0.8623 -0.1216 0.4915
vn 0.7744 -0.4473 0.4473
vn 0.8623 -0.4915 0.1216
vn 0.4915 -0.1216 0.8623
vn 0.4473 -0.4473 0.7744
vn 0.1216 -0.4915 0.8623
vn 0.1216 -0.8623 0.4915
vn 0.4473 -0.7744 0.4473
vn 0.4915 -0.8623 0.1216
vn -0.1296 0.1296 -0.9831
vn -0.4915 0.1216 -0.8623
vn -0.4473 0.4473 -0.7744
vn -0.1216 0.4915 -0.8623
vn -0.8623 0.1216 -0.4915
vn -0.7744 0.4473 -0.4473
vn -0.8623 0.4915 -0.1216
vn -0.4915 0.8623 -0.1216
vn -0.4473 0.7744 -0.4473
vn -0.1216 0.8623 -0.4915
vn -0.8623 -0.1216 -0.4915
vn -0.7744 -0.4473 -0.4473
vn -0.8623 -0.4915 -0.1216
vn -0.4915 -0.1216 -0.8623
vn -0.4473 -0.4473 -0.7744
vn -0.1296 -0.1296 -0.9831
vn -0.1216 -0.4915 -0.8623
vn -0.1216 -0.8623 -0.4915
vn -0.4473 -0.7744 -0.4473
vn -0.4915 -0.8623 -0.1216
vn -0.8623 0.1216 0.4915
vn -0.7744 0.4473 0.4473
vn -0.8623 0.4915 0.1216
vn -0.4915 0.1216 0.8623
vn -0.4473 0.4473 0.7744
vn -0.1216 0.4915 0.8623
vn -0.1216 0.8623 0.4915
vn -0.4473 0.7744 0.4473
vn -0.4915 0.8623 0.1216
vn -0.1216 -0.8623 0.4915
vn -0.4473 -0.7744 0.4473
vn -0.4915 -0.8623 0.1216
vn -0.1216 -0.4915 0.8623
vn -0.4473 -0.4473 0.7744
vn -0.4915 -0.1216 0.8623
vn -0.8623 -0.1216 0.4915
vn -0.7744 -0.4473 0.4473
vn -0.8623 -0.4915 0.1216
usemtl Material
s 1
f 63/1/1 13/2/2 39/3/3 85/4/4
f 87/5/5 73/6/6 50/7/7 61/8/8
f 38/9/9 27/10/10 74/11/11 86/12/12
f 2/13/13 51/14/14 75/15/15 26/16/16
f 15/17/17 3/18/18 25/19/19 37/20/20
f 1/21/21 4/22/22 6/23/23 5/24/24
f 4/22/22 8/25/25 9/26/26 6/23/23
f 2/13/13 7/27/27 9/28/26 8/29/25
f 7/27/27 11/30/28 12/31/29 9/28/26
f 3/18/18 10/32/30 12/33/29 11/34/28
f 10/32/30 5/35/24 6/36/23 12/33/29
f 6/23/23 9/26/26 12/37/29
f 13/2/2 16/38/31 18/39/32 17/40/33
f 16/38/31 20/41/34 21/42/35 18/39/32
f 14/43/36 19/44/37 21/45/35 20/46/34
f 19/44/37 23/47/38 24/48/39 21/45/35
f 15/17/17 22/49/40 24/50/39 23/51/38
f 22/49/40 17/52/33 18/53/32 24/50/39
f 18/39/32 21/42/35 24/54/39
f 25/19/19 28/55/41 30/56/42 29/57/43
f 28/55/41 32/58/44 33/59/45 30/56/42
f 26/16/16 31/60/46 33/61/45 32/62/44
f 31/63/46 35/64/47 36/65/48 33/66/45
f 27/10/10 34/67/49 36/68/48 35/69/47
f 34/67/49 29/70/43 30/71/42 36/68/48
f 30/56/42 33/59/45 36/72/48
f 37/20/20 40/73/50 42/74/51 41/75/52
f 40/73/50 44/76/53 45/77/54 42/74/51
f 38/9/9 43/78/55 45/79/54 44/80/53
f 43/81/55 47/82/56 48/83/57 45/84/54
f 39/3/3 46/85/58 48/86/57 47/87/56
f 46/85/58 41/88/52 42/89/51 48/86/57
f 42/90/51 45/77/54 48/91/57
f 49/92/59 52/93/60 54/94/61 53/95/62
f 52/93/60 56/96/63 57/97/64 54/94/61
f 50/7/7 55/98/65 57/99/64 56/100/63
f 55/98/65 59/101/66 60/102/67 57/99/64
f 51/14/14 58/103/68 60/104/67 59/105/66
f 58/106/68 53/107/62 54/108/61 60/109/67
f 54/110/61 57/97/64 60/102/67
f 61/8/8 64/111/69 66/112/70 65/113/71
f 64/111/69 68/114/72 69/115/73 66/112/70
f 62/116/74 67/117/75 69/118/73 68/119/72
f 67/120/75 71/121/76 72/122/77 69/123/73
f 63/1/1 70/124/78 72/125/77 71/126/76
f 70/124/78 65/127/71 66/128/70 72/125/77
f 66/112/70 69/115/73 72/129/77
f 73/6/6 76/130/79 78/131/80 77/132/81
f 76/130/79 80/133/82 81/134/83 78/131/80
f 74/11/11 79/135/84 81/136/83 80/137/82
f 79/135/84 83/138/85 84/139/86 81/136/83
f 75/15/15 82/140/87 84/141/86 83/142/85
f 82/143/87 77/144/81 78/145/80 84/146/86
f 78/131/80 81/134/83 84/147/86
f 85/4/4 88/148/88 90/149/89 89/150/90
f 88/148/88 92/151/91 93/152/92 90/149/89
f 86/12/12 91/153/93 93/154/92 92/155/91
f 91/156/93 95/157/94 96/158/95 93/159/92
f 87/5/5 94/160/96 96/161/95 95/162/94
f 94/163/96 89/164/90 90/165/89 96/166/95
f 90/149/89 93/152/92 96/167/95
f 63/1/1 85/4/4 89/150/90 70/124/78
f 70/124/78 89/150/90 94/168/96 65/127/71
f 65/113/71 94/160/96 87/5/5 61/8/8
f 13/2/2 63/1/1 71/126/76 16/38/31
f 16/38/31 71/126/76 67/169/75 20/41/34
f 20/46/34 67/117/75 62/116/74 14/43/36
f 3/18/18 15/17/17 23/51/38 10/32/30
f 10/32/30 23/51/38 19/44/37 5/24/24
f 5/24/24 19/44/37 14/43/36 1/21/21
f 86/12/12 74/11/11 80/137/82 91/153/93
f 91/170/93 80/133/82 76/130/79 95/162/94
f 95/162/94 76/130/79 73/6/6 87/5/5
f 27/10/10 38/9/9 44/80/53 34/67/49
f 34/67/49 44/80/53 40/73/50 29/57/43
f 29/57/43 40/73/50 37/20/20 25/19/19
f 49/92/59 62/116/74 68/119/72 52/93/60
f 52/93/60 68/119/72 64/111/69 56/100/63
f 56/100/63 64/111/69 61/8/8 50/7/7
f 26/16/16 75/15/15 83/142/85 31/60/46
f 31/171/46 83/138/85 79/135/84 35/69/47
f 35/69/47 79/135/84 74/11/11 27/10/10
f 2/13/13 26/16/16 32/62/44 7/27/27
f 7/27/27 32/62/44 28/55/41 11/34/28
f 11/34/28 28/55/41 25/19/19 3/18/18
f 85/4/4 39/3/3 47/87/56 88/148/88
f 88/148/88 47/87/56 43/172/55 92/151/91
f 92/155/91 43/78/55 38/9/9 86/12/12
f 75/15/15 51/14/14 59/105/66 82/140/87
f 82/173/87 59/101/66 55/98/65 77/132/81
f 77/132/81 55/98/65 50/7/7 73/6/6
f 51/14/14 2/13/13 8/29/25 58/103/68
f 58/174/68 8/25/25 4/22/22 53/95/62
f 53/95/62 4/22/22 1/21/21 49/92/59
f 39/3/3 13/2/2 17/40/33 46/85/58
f 46/85/58 17/40/33 22/49/40 41/75/52
f 41/75/52 22/49/40 15/17/17 37/20/20
f 62/116/74 49/92/59 1/21/21 14/43/36
